REM DIRINDEX 1\5,1\2\6,1\2\7,1\3\8,1\3\9,1\3\10,1\3\11,1\4\12,1\4\13,1\4\14
REM DIRNAME folder01,folder02,folder03,folder04,folder05,folder06,folder07,folder08,folder09,folder10,folder11,folder12,folder13,folder14
TITLE ""
FILE "4Q_t_318-333.mp3" MP3
  TRACK 01 AUDIO
    TITLE "5:cjc042_1632"
    INDEX 01 00:00:00
  TRACK 02 AUDIO
    TITLE "0:"
    INDEX 01 00:00:74
  TRACK 03 AUDIO
    TITLE "6:cjc042_1633"
    INDEX 01 00:01:46
  TRACK 04 AUDIO
    TITLE "0:"
    INDEX 01 00:02:51
  TRACK 05 AUDIO
    TITLE "7:cjc042_1634"
    INDEX 01 00:03:17
  TRACK 06 AUDIO
    TITLE "0:"
    INDEX 01 00:10:14
  TRACK 07 AUDIO
    TITLE "6:cjc042_1635"
    INDEX 01 00:10:61
  TRACK 08 AUDIO
    TITLE "0:"
    INDEX 01 00:11:68
  TRACK 09 AUDIO
    TITLE "7:cjc042_1636"
    INDEX 01 00:12:40
  TRACK 10 AUDIO
    TITLE "0:"
    INDEX 01 00:14:49
  TRACK 11 AUDIO
    TITLE "6:cjc042_1637"
    INDEX 01 00:15:23
  TRACK 12 AUDIO
    TITLE "0:"
    INDEX 01 00:16:26
  TRACK 13 AUDIO
    TITLE "7:cjc042_1638"
    INDEX 01 00:17:00
  TRACK 14 AUDIO
    TITLE "0:"
    INDEX 01 00:22:44
  TRACK 15 AUDIO
    TITLE "6:cjc042_1639"
    INDEX 01 00:23:10
  TRACK 16 AUDIO
    TITLE "0:"
    INDEX 01 00:24:14
  TRACK 17 AUDIO
    TITLE "7:cjc042_1640"
    INDEX 01 00:24:65
  TRACK 18 AUDIO
    TITLE "0:"
    INDEX 01 00:26:67
  TRACK 19 AUDIO
    TITLE "6:cjc042_1641"
    INDEX 01 00:27:38
  TRACK 20 AUDIO
    TITLE "0:"
    INDEX 01 00:28:37
  TRACK 21 AUDIO
    TITLE "7:cjc042_1642"
    INDEX 01 00:29:09
  TRACK 22 AUDIO
    TITLE "0:"
    INDEX 01 00:37:24
  TRACK 23 AUDIO
    TITLE "6:cjc042_1643"
    INDEX 01 00:37:69
  TRACK 24 AUDIO
    TITLE "0:"
    INDEX 01 00:39:03
  TRACK 25 AUDIO
    TITLE "7:cjc042_1644"
    INDEX 01 00:39:49
  TRACK 26 AUDIO
    TITLE "0:"
    INDEX 01 00:46:68
  TRACK 27 AUDIO
    TITLE "6:cjc042_1645"
    INDEX 01 00:47:38
  TRACK 28 AUDIO
    TITLE "0:"
    INDEX 01 00:48:44
  TRACK 29 AUDIO
    TITLE "7:cjc042_1646"
    INDEX 01 00:49:20
  TRACK 30 AUDIO
    TITLE "0:"
    INDEX 01 00:51:42
  TRACK 31 AUDIO
    TITLE "6:cjc042_1647"
    INDEX 01 00:52:16
  TRACK 32 AUDIO
    TITLE "0:"
    INDEX 01 00:53:31
  TRACK 33 AUDIO
    TITLE "7:cjc042_1648"
    INDEX 01 00:54:01
  TRACK 34 AUDIO
    TITLE "0:"
    INDEX 01 00:55:65
  TRACK 35 AUDIO
    TITLE "6:cjc042_1649"
    INDEX 01 00:56:33
  TRACK 36 AUDIO
    TITLE "0:"
    INDEX 01 00:57:46
  TRACK 37 AUDIO
    TITLE "7:cjc042_1650"
    INDEX 01 00:58:13
  TRACK 38 AUDIO
    TITLE "0:"
    INDEX 01 01:00:12
  TRACK 39 AUDIO
    TITLE "6:cjc042_1651"
    INDEX 01 01:00:55
  TRACK 40 AUDIO
    TITLE "0:"
    INDEX 01 01:02:10
  TRACK 41 AUDIO
    TITLE "7:cjc042_1652"
    INDEX 01 01:02:55
  TRACK 42 AUDIO
    TITLE "0:"
    INDEX 01 01:04:43
  TRACK 43 AUDIO
    TITLE "6:cjc042_1653"
    INDEX 01 01:05:15
  TRACK 44 AUDIO
    TITLE "0:"
    INDEX 01 01:06:18
  TRACK 45 AUDIO
    TITLE "7:cjc042_1654"
    INDEX 01 01:06:65
  TRACK 46 AUDIO
    TITLE "0:"
    INDEX 01 01:08:46
  TRACK 47 AUDIO
    TITLE "6:cjc042_1655"
    INDEX 01 01:09:16
  TRACK 48 AUDIO
    TITLE "0:"
    INDEX 01 01:10:22
  TRACK 49 AUDIO
    TITLE "7:cjc042_1656"
    INDEX 01 01:10:69
  TRACK 50 AUDIO
    TITLE "0:"
    INDEX 01 01:12:68
  TRACK 51 AUDIO
    TITLE "6:cjc042_1657"
    INDEX 01 01:13:40
  TRACK 52 AUDIO
    TITLE "0:"
    INDEX 01 01:14:49
  TRACK 53 AUDIO
    TITLE "7:cjc042_1658"
    INDEX 01 01:15:25
  TRACK 54 AUDIO
    TITLE "0:"
    INDEX 01 01:18:02
  TRACK 55 AUDIO
    TITLE "6:cjc042_1659"
    INDEX 01 01:18:47
  TRACK 56 AUDIO
    TITLE "0:"
    INDEX 01 01:19:58
  TRACK 57 AUDIO
    TITLE "7:cjc042_1660"
    INDEX 01 01:20:32
  TRACK 58 AUDIO
    TITLE "0:"
    INDEX 01 01:22:50
  TRACK 59 AUDIO
    TITLE "6:cjc042_1661"
    INDEX 01 01:23:18
  TRACK 60 AUDIO
    TITLE "0:"
    INDEX 01 01:24:28
  TRACK 61 AUDIO
    TITLE "7:cjc042_1662"
    INDEX 01 01:25:00
  TRACK 62 AUDIO
    TITLE "0:"
    INDEX 01 01:26:46
  TRACK 63 AUDIO
    TITLE "6:cjc042_1663"
    INDEX 01 01:27:20
  TRACK 64 AUDIO
    TITLE "0:"
    INDEX 01 01:28:59
  TRACK 65 AUDIO
    TITLE "7:cjc042_1664"
    INDEX 01 01:29:35
  TRACK 66 AUDIO
    TITLE "0:"
    INDEX 01 01:31:45
